<?xml version="1.0" encoding="UTF-8"?>
<svg width="502px" height="62px" viewBox="0 0 502 62" version="1.1" xmlns="http://www.w3.org/2000/svg" xmlns:xlink="http://www.w3.org/1999/xlink">
    <!-- Generator: Sketch 42 (36781) - http://www.bohemiancoding.com/sketch -->
    <title>vega</title>
    <desc>Created with Sketch.</desc>
    <defs></defs>
    <g id="Page-1" stroke="none" stroke-width="1" fill="none" fill-rule="evenodd">
        <g id="vega">
            <g id="Group">
                <g>
                    <g>
                        <g>
                            <g>
                                <g transform="translate(1.000000, 32.000000)">
                                    <g>
                                        <g transform="translate(55.000000, 4.000000)" font-size="13" font-family="Helvetica" fill="#000000" font-weight="normal">
                                            <text id="2014">
                                                <tspan x="0" y="13.9401801">2014</tspan>
                                            </text>
                                            <text id="2015">
                                                <tspan x="159" y="13.9401801">2015</tspan>
                                            </text>
                                            <text id="2016">
                                                <tspan x="318" y="13.9401801"> 2016</tspan>
                                            </text>
                                        </g>
                                        <g id="Shape" stroke="#ECECEC">
                                            <path d="M0.5,1 L500.5,1"></path>
                                        </g>
                                    </g>
                                </g>
                                <g fill-rule="nonzero" id="Rectangle-path" fill="#4682B4" opacity="0.7">
                                    <rect x="0.5" y="0.1375" width="1" height="32.725"></rect>
                                    <rect x="6.5" y="0.1375" width="1" height="32.725"></rect>
                                    <rect x="25.5" y="0.1375" width="1" height="32.725"></rect>
                                    <rect x="26.5" y="0.1375" width="1" height="32.725"></rect>
                                    <rect x="22.5" y="0.1375" width="1" height="32.725"></rect>
                                    <rect x="29.5" y="0.1375" width="1" height="32.725"></rect>
                                    <rect x="44.5" y="0.1375" width="1" height="32.725"></rect>
                                    <rect x="44.5" y="0.1375" width="1" height="32.725"></rect>
                                    <rect x="44.5" y="0.1375" width="1" height="32.725"></rect>
                                    <rect x="44.5" y="0.1375" width="1" height="32.725"></rect>
                                    <rect x="44.5" y="0.1375" width="1" height="32.725"></rect>
                                    <rect x="52.5" y="0.1375" width="1" height="32.725"></rect>
                                    <rect x="56.5" y="0.1375" width="1" height="32.725"></rect>
                                    <rect x="56.5" y="0.1375" width="1" height="32.725"></rect>
                                    <rect x="58.5" y="0.1375" width="1" height="32.725"></rect>
                                    <rect x="60.5" y="0.1375" width="1" height="32.725"></rect>
                                    <rect x="61.5" y="0.1375" width="1" height="32.725"></rect>
                                    <rect x="64.5" y="0.1375" width="1" height="32.725"></rect>
                                    <rect x="73.5" y="0.1375" width="1" height="32.725"></rect>
                                    <rect x="92.5" y="0.1375" width="1" height="32.725"></rect>
                                    <rect x="93.5" y="0.1375" width="1" height="32.725"></rect>
                                    <rect x="93.5" y="0.1375" width="1" height="32.725"></rect>
                                    <rect x="96.5" y="0.1375" width="1" height="32.725"></rect>
                                    <rect x="116.5" y="0.1375" width="1" height="32.725"></rect>
                                    <rect x="121.5" y="0.1375" width="1" height="32.725"></rect>
                                    <rect x="132.5" y="0.1375" width="1" height="32.725"></rect>
                                    <rect x="133.5" y="0.1375" width="1" height="32.725"></rect>
                                    <rect x="134.5" y="0.1375" width="1" height="32.725"></rect>
                                    <rect x="137.5" y="0.1375" width="1" height="32.725"></rect>
                                    <rect x="140.5" y="0.1375" width="1" height="32.725"></rect>
                                    <rect x="145.5" y="0.1375" width="1" height="32.725"></rect>
                                    <rect x="147.5" y="0.1375" width="1" height="32.725"></rect>
                                    <rect x="179.5" y="0.1375" width="1" height="32.725"></rect>
                                    <rect x="202.5" y="0.1375" width="1" height="32.725"></rect>
                                    <rect x="202.5" y="0.1375" width="1" height="32.725"></rect>
                                    <rect x="202.5" y="0.1375" width="1" height="32.725"></rect>
                                    <rect x="202.5" y="0.1375" width="1" height="32.725"></rect>
                                    <rect x="202.5" y="0.1375" width="1" height="32.725"></rect>
                                    <rect x="202.5" y="0.1375" width="1" height="32.725"></rect>
                                    <rect x="202.5" y="0.1375" width="1" height="32.725"></rect>
                                    <rect x="207.5" y="0.1375" width="1" height="32.725"></rect>
                                    <rect x="245.5" y="0.1375" width="1" height="32.725"></rect>
                                    <rect x="257.5" y="0.1375" width="1" height="32.725"></rect>
                                    <rect x="267.5" y="0.1375" width="1" height="32.725"></rect>
                                    <rect x="278.5" y="0.1375" width="1" height="32.725"></rect>
                                    <rect x="282.5" y="0.1375" width="1" height="32.725"></rect>
                                    <rect x="285.5" y="0.1375" width="1" height="32.725"></rect>
                                    <rect x="293.5" y="0.1375" width="1" height="32.725"></rect>
                                    <rect x="307.5" y="0.1375" width="1" height="32.725"></rect>
                                    <rect x="311.5" y="0.1375" width="1" height="32.725"></rect>
                                    <rect x="313.5" y="0.1375" width="1" height="32.725"></rect>
                                    <rect x="319.5" y="0.1375" width="1" height="32.725"></rect>
                                    <rect x="319.5" y="0.1375" width="1" height="32.725"></rect>
                                    <rect x="318.5" y="0.1375" width="1" height="32.725"></rect>
                                    <rect x="318.5" y="0.1375" width="1" height="32.725"></rect>
                                    <rect x="322.5" y="0.1375" width="1" height="32.725"></rect>
                                    <rect x="341.5" y="0.1375" width="1" height="32.725"></rect>
                                    <rect x="352.5" y="0.1375" width="1" height="32.725"></rect>
                                    <rect x="354.5" y="0.1375" width="1" height="32.725"></rect>
                                    <rect x="354.5" y="0.1375" width="1" height="32.725"></rect>
                                    <rect x="360.5" y="0.1375" width="1" height="32.725"></rect>
                                    <rect x="361.5" y="0.1375" width="1" height="32.725"></rect>
                                    <rect x="361.5" y="0.1375" width="1" height="32.725"></rect>
                                    <rect x="361.5" y="0.1375" width="1" height="32.725"></rect>
                                    <rect x="366.5" y="0.1375" width="1" height="32.725"></rect>
                                    <rect x="419.5" y="0.1375" width="1" height="32.725"></rect>
                                    <rect x="420.5" y="0.1375" width="1" height="32.725"></rect>
                                    <rect x="442.5" y="0.1375" width="1" height="32.725"></rect>
                                    <rect x="444.5" y="0.1375" width="1" height="32.725"></rect>
                                    <rect x="444.5" y="0.1375" width="1" height="32.725"></rect>
                                    <rect x="459.5" y="0.1375" width="1" height="32.725"></rect>
                                    <rect x="478.5" y="0.1375" width="1" height="32.725"></rect>
                                    <rect x="482.5" y="0.1375" width="1" height="32.725"></rect>
                                    <rect x="482.5" y="0.1375" width="1" height="32.725"></rect>
                                    <rect x="489.5" y="0.1375" width="1" height="32.725"></rect>
                                    <rect x="500.5" y="0.1375" width="1" height="32.725"></rect>
                                    <rect x="500.5" y="0.1375" width="1" height="32.725"></rect>
                                </g>
                            </g>
                        </g>
                    </g>
                </g>
            </g>
        </g>
    </g>
</svg>