
<svg class="marks" viewBox="0 0 559 406" version="1.1" xmlns="http://www.w3.org/2000/svg" xmlns:xlink="http://www.w3.org/1999/xlink"><g transform="translate(52,12)"><g class="mark-group"><g transform="translate(0,0)"><rect class="background" width="1" height="1" style="fill: none;"></rect><g class="mark-group root"><g transform="translate(0,0)"><rect class="background" width="500" height="350" style="fill: none;"></rect><g class="mark-group"><g transform="translate(0,350)"><rect class="background" width="0" height="0" style="pointer-events: none; fill: none;"></rect><g class="mark-rule" style="pointer-events: none;"><line transform="translate(0.5,-350)" x2="0" y2="350" style="fill: none; stroke: #ccc; stroke-opacity: 0.15; opacity: 1;"></line><line transform="translate(128.5,-350)" x2="0" y2="350" style="fill: none; stroke: #ccc; stroke-opacity: 0.15; opacity: 1;"></line><line transform="translate(255.5,-350)" x2="0" y2="350" style="fill: none; stroke: #ccc; stroke-opacity: 0.15; opacity: 1;"></line><line transform="translate(383.5,-350)" x2="0" y2="350" style="fill: none; stroke: #ccc; stroke-opacity: 0.15; opacity: 1;"></line></g><g class="mark-rule" style="pointer-events: none;"><line transform="translate(0.5,0)" x2="0" y2="0" style="fill: none; stroke: #000; stroke-width: 1; opacity: 1;"></line><line transform="translate(128.5,0)" x2="0" y2="0" style="fill: none; stroke: #000; stroke-width: 1; opacity: 1;"></line><line transform="translate(255.5,0)" x2="0" y2="0" style="fill: none; stroke: #000; stroke-width: 1; opacity: 1;"></line><line transform="translate(383.5,0)" x2="0" y2="0" style="fill: none; stroke: #000; stroke-width: 1; opacity: 1;"></line></g><g class="mark-rule" style="pointer-events: none;"></g><g class="mark-text"><text text-anchor="middle" transform="translate(0.5,20)" style="font: 11px sans-serif; fill: #000; opacity: 1;">Jan 2013</text><text text-anchor="middle" transform="translate(128.5,20)" style="font: 11px sans-serif; fill: #000; opacity: 1;">Jan 2014</text><text text-anchor="middle" transform="translate(255.5,20)" style="font: 11px sans-serif; fill: #000; opacity: 1;">Jan 2015</text><text text-anchor="middle" transform="translate(383.5,20)" style="font: 11px sans-serif; fill: #000; opacity: 1;">Jan 2016</text></g><g class="mark-path" style="pointer-events: none;"><path transform="translate(0.5,0.5)" d="M0,0V0H500V0" style="fill: none; stroke: #000; stroke-width: 1;"></path></g><g class="mark-text"><text text-anchor="middle" transform="translate(250,36)" style="font: bold 11px sans-serif; fill: #000;"> </text></g></g></g><g class="mark-group"><g transform="translate(0,0)"><rect class="background" width="0" height="0" style="pointer-events: none; fill: none;"></rect><g class="mark-rule" style="pointer-events: none;"><line transform="translate(0,350.5)" x2="500" y2="0" style="fill: none; stroke: #ccc; stroke-opacity: 0.15; opacity: 1;"></line><line transform="translate(0,280.5)" x2="500" y2="0" style="fill: none; stroke: #ccc; stroke-opacity: 0.15; opacity: 1;"></line><line transform="translate(0,210.5)" x2="500" y2="0" style="fill: none; stroke: #ccc; stroke-opacity: 0.15; opacity: 1;"></line><line transform="translate(0,140.5)" x2="500" y2="0" style="fill: none; stroke: #ccc; stroke-opacity: 0.15; opacity: 1;"></line><line transform="translate(0,70.5)" x2="500" y2="0" style="fill: none; stroke: #ccc; stroke-opacity: 0.15; opacity: 1;"></line><line transform="translate(0,0.5)" x2="500" y2="0" style="fill: none; stroke: #ccc; stroke-opacity: 0.15; opacity: 1;"></line></g><g class="mark-rule" style="pointer-events: none;"><line transform="translate(0,350.5)" x2="0" y2="0" style="fill: none; stroke: #000; stroke-width: 1; opacity: 1;"></line><line transform="translate(0,280.5)" x2="0" y2="0" style="fill: none; stroke: #000; stroke-width: 1; opacity: 1;"></line><line transform="translate(0,210.5)" x2="0" y2="0" style="fill: none; stroke: #000; stroke-width: 1; opacity: 1;"></line><line transform="translate(0,140.5)" x2="0" y2="0" style="fill: none; stroke: #000; stroke-width: 1; opacity: 1;"></line><line transform="translate(0,70.5)" x2="0" y2="0" style="fill: none; stroke: #000; stroke-width: 1; opacity: 1;"></line><line transform="translate(0,0.5)" x2="0" y2="0" style="fill: none; stroke: #000; stroke-width: 1; opacity: 1;"></line></g><g class="mark-rule" style="pointer-events: none;"></g><g class="mark-text"><text text-anchor="end" transform="translate(-10,353.5)" style="font: 11px sans-serif; fill: #000; opacity: 1;">0</text><text text-anchor="end" transform="translate(-10,283.5)" style="font: 11px sans-serif; fill: #000; opacity: 1;">20</text><text text-anchor="end" transform="translate(-10,213.5)" style="font: 11px sans-serif; fill: #000; opacity: 1;">40</text><text text-anchor="end" transform="translate(-10,143.5)" style="font: 11px sans-serif; fill: #000; opacity: 1;">60</text><text text-anchor="end" transform="translate(-10,73.5)" style="font: 11px sans-serif; fill: #000; opacity: 1;">80</text><text text-anchor="end" transform="translate(-10,3.5)" style="font: 11px sans-serif; fill: #000; opacity: 1;">100</text></g><g class="mark-path" style="pointer-events: none;"><path transform="translate(0.5,0.5)" d="M0,0H0V350H0" style="fill: none; stroke: #000; stroke-width: 1;"></path></g><g class="mark-text"><text text-anchor="middle" transform="translate(-40,175) rotate(-90) translate(0,3)" style="font: bold 11px sans-serif; fill: #000;">Hours lost each month</text></g></g></g><g class="mark-line marks"><path d="M500,344L489,345L479,342L468,336L457,333L446,330L436,339L425,341L415,344L404,336L394,340L383,338L372,331L362,332L351,333L340,337L329,338L319,332L308,336L297,335L287,334L276,327L266,317L255,332L244,334L234,336L223,297L213,188L202,349L191,349L180,340L170,342L159,343L148,177L138,61L128,24L117,180L106,200L95,225L85,212L74,218L63,270L53,336L42,349L31,349L21,349L11,350L0,349" style="fill: none; stroke: #4682b4; stroke-width: 2;"></path></g></g></g></g></g></g></svg>