<svg class="marks" width="553" height="406" version="1.1" xmlns="http://www.w3.org/2000/svg" xmlns:xlink="http://www.w3.org/1999/xlink"><g transform="translate(46,12)"><g class="mark-group"><g transform="translate(0,0)"><rect class="background" width="1" height="1" style="fill: none;"></rect><g class="mark-group root"><g transform="translate(0,0)"><rect class="background" width="500" height="350" style="fill: none;"></rect><g class="mark-group"><g transform="translate(0,350)"><rect class="background" width="0" height="0" style="pointer-events: none; fill: none;"></rect><g class="mark-rule" style="pointer-events: none;"><line transform="translate(0.5,-350)" x2="0" y2="350" style="fill: none; stroke: #ccc; stroke-opacity: 0.15; opacity: 1;"></line><line transform="translate(64.5,-350)" x2="0" y2="350" style="fill: none; stroke: #ccc; stroke-opacity: 0.15; opacity: 1;"></line><line transform="translate(129.5,-350)" x2="0" y2="350" style="fill: none; stroke: #ccc; stroke-opacity: 0.15; opacity: 1;"></line><line transform="translate(195.5,-350)" x2="0" y2="350" style="fill: none; stroke: #ccc; stroke-opacity: 0.15; opacity: 1;"></line><line transform="translate(261.5,-350)" x2="0" y2="350" style="fill: none; stroke: #ccc; stroke-opacity: 0.15; opacity: 1;"></line><line transform="translate(326.5,-350)" x2="0" y2="350" style="fill: none; stroke: #ccc; stroke-opacity: 0.15; opacity: 1;"></line><line transform="translate(391.5,-350)" x2="0" y2="350" style="fill: none; stroke: #ccc; stroke-opacity: 0.15; opacity: 1;"></line><line transform="translate(456.5,-350)" x2="0" y2="350" style="fill: none; stroke: #ccc; stroke-opacity: 0.15; opacity: 1;"></line></g><g class="mark-rule" style="pointer-events: none;"><line transform="translate(0.5,0)" x2="0" y2="0" style="fill: none; stroke: #000; stroke-width: 1; opacity: 1;"></line><line transform="translate(64.5,0)" x2="0" y2="0" style="fill: none; stroke: #000; stroke-width: 1; opacity: 1;"></line><line transform="translate(129.5,0)" x2="0" y2="0" style="fill: none; stroke: #000; stroke-width: 1; opacity: 1;"></line><line transform="translate(195.5,0)" x2="0" y2="0" style="fill: none; stroke: #000; stroke-width: 1; opacity: 1;"></line><line transform="translate(261.5,0)" x2="0" y2="0" style="fill: none; stroke: #000; stroke-width: 1; opacity: 1;"></line><line transform="translate(326.5,0)" x2="0" y2="0" style="fill: none; stroke: #000; stroke-width: 1; opacity: 1;"></line><line transform="translate(391.5,0)" x2="0" y2="0" style="fill: none; stroke: #000; stroke-width: 1; opacity: 1;"></line><line transform="translate(456.5,0)" x2="0" y2="0" style="fill: none; stroke: #000; stroke-width: 1; opacity: 1;"></line></g><g class="mark-rule" style="pointer-events: none;"></g><g class="mark-text"><text text-anchor="middle" transform="translate(0.5,20)" style="font: 11px sans-serif; fill: #000; opacity: 1;">Jan 2015</text><text text-anchor="middle" transform="translate(64.5,20)" style="font: 11px sans-serif; fill: #000; opacity: 1;">Apr 2015</text><text text-anchor="middle" transform="translate(129.5,20)" style="font: 11px sans-serif; fill: #000; opacity: 1;">Jul 2015</text><text text-anchor="middle" transform="translate(195.5,20)" style="font: 11px sans-serif; fill: #000; opacity: 1;">Oct 2015</text><text text-anchor="middle" transform="translate(261.5,20)" style="font: 11px sans-serif; fill: #000; opacity: 1;">Jan 2016</text><text text-anchor="middle" transform="translate(326.5,20)" style="font: 11px sans-serif; fill: #000; opacity: 1;">Apr 2016</text><text text-anchor="middle" transform="translate(391.5,20)" style="font: 11px sans-serif; fill: #000; opacity: 1;">Jul 2016</text><text text-anchor="middle" transform="translate(456.5,20)" style="font: 11px sans-serif; fill: #000; opacity: 1;">Oct 2016</text></g><g class="mark-path" style="pointer-events: none;"><path transform="translate(0.5,0.5)" d="M0,0V0H500V0" style="fill: none; stroke: #000; stroke-width: 1;"></path></g><g class="mark-text"><text text-anchor="middle" transform="translate(250,36)" style="font: bold 11px sans-serif; fill: #000;"> </text></g></g></g><g class="mark-group"><g transform="translate(0,0)"><rect class="background" width="0" height="0" style="pointer-events: none; fill: none;"></rect><g class="mark-rule" style="pointer-events: none;"><line transform="translate(0,350.5)" x2="500" y2="0" style="fill: none; stroke: #ccc; stroke-opacity: 0.15; opacity: 1;"></line><line transform="translate(0,280.5)" x2="500" y2="0" style="fill: none; stroke: #ccc; stroke-opacity: 0.15; opacity: 1;"></line><line transform="translate(0,210.5)" x2="500" y2="0" style="fill: none; stroke: #ccc; stroke-opacity: 0.15; opacity: 1;"></line><line transform="translate(0,140.5)" x2="500" y2="0" style="fill: none; stroke: #ccc; stroke-opacity: 0.15; opacity: 1;"></line><line transform="translate(0,70.5)" x2="500" y2="0" style="fill: none; stroke: #ccc; stroke-opacity: 0.15; opacity: 1;"></line><line transform="translate(0,0.5)" x2="500" y2="0" style="fill: none; stroke: #ccc; stroke-opacity: 0.15; opacity: 1;"></line></g><g class="mark-rule" style="pointer-events: none;"><line transform="translate(0,350.5)" x2="0" y2="0" style="fill: none; stroke: #000; stroke-width: 1; opacity: 1;"></line><line transform="translate(0,280.5)" x2="0" y2="0" style="fill: none; stroke: #000; stroke-width: 1; opacity: 1;"></line><line transform="translate(0,210.5)" x2="0" y2="0" style="fill: none; stroke: #000; stroke-width: 1; opacity: 1;"></line><line transform="translate(0,140.5)" x2="0" y2="0" style="fill: none; stroke: #000; stroke-width: 1; opacity: 1;"></line><line transform="translate(0,70.5)" x2="0" y2="0" style="fill: none; stroke: #000; stroke-width: 1; opacity: 1;"></line><line transform="translate(0,0.5)" x2="0" y2="0" style="fill: none; stroke: #000; stroke-width: 1; opacity: 1;"></line></g><g class="mark-rule" style="pointer-events: none;"></g><g class="mark-text"><text text-anchor="end" transform="translate(-10,353.5)" style="font: 11px sans-serif; fill: #000; opacity: 1;">0</text><text text-anchor="end" transform="translate(-10,283.5)" style="font: 11px sans-serif; fill: #000; opacity: 1;">2</text><text text-anchor="end" transform="translate(-10,213.5)" style="font: 11px sans-serif; fill: #000; opacity: 1;">4</text><text text-anchor="end" transform="translate(-10,143.5)" style="font: 11px sans-serif; fill: #000; opacity: 1;">6</text><text text-anchor="end" transform="translate(-10,73.5)" style="font: 11px sans-serif; fill: #000; opacity: 1;">8</text><text text-anchor="end" transform="translate(-10,3.5)" style="font: 11px sans-serif; fill: #000; opacity: 1;">10</text></g><g class="mark-path" style="pointer-events: none;"><path transform="translate(0.5,0.5)" d="M0,0H0V350H0" style="fill: none; stroke: #000; stroke-width: 1;"></path></g><g class="mark-text"><text text-anchor="middle" transform="translate(-34,175) rotate(-90) translate(0,3)" style="font: bold 11px sans-serif; fill: #000;">Hours lost each month</text></g></g></g><g class="mark-line marks"><path d="M500,287L479,299L456,271L435,214L413,183L391,151L369,244L347,259L326,289L304,215L283,254L261,228L239,159L217,170L195,184L174,221L151,226L129,167L108,207L86,205L64,186L42,123L22,25L0,171" style="fill: none; stroke: #4682b4; stroke-width: 2;"></path></g></g></g></g></g></g></svg>